<svg width="47" height="50" viewBox="0 0 47 50" fill="none" xmlns="http://www.w3.org/2000/svg">
<g id="Group 1">
<path id="Vector" d="M15.7379 26.7869L13.4833 21.1978L13.5453 12.1502C13.5453 12.1502 19.6185 11.24 22.8081 10.8015C25.9977 10.363 32.3397 7.6905 38.1233 10.2513C44.6928 13.1596 48.1762 19.8905 46.4221 30.1503C44.668 40.41 36.9773 48.713 30.052 49.6066C26.6224 50.0493 26.0101 48.7171 23.3831 48.9075C21.2567 49.0605 21.3725 50.1651 17.7444 49.9789C14.1162 49.7928 11.0383 48.4441 9.22631 46.1936C7.4143 43.943 15.7379 26.7869 15.7379 26.7869Z" fill="#DC0D28"/>
<path id="Vector_2" d="M5.72641 13.9001C0.526197 18.2439 -1.92704 27.3991 2.22237 37.1707C5.91258 45.8667 11.8078 48.353 11.8078 48.353C11.8078 48.353 22.1172 47.6787 29.3115 43.7982C36.5057 39.9177 43.4517 33.162 43.4517 24.2798C43.4517 15.3977 38.8224 12.3942 38.3219 12.2701C37.8213 12.146 35.7569 13.4574 33.4402 13.5195C31.1235 13.5815 29.3115 13.0189 29.3115 13.0189L21.9931 15.4597L15.1505 13.8628C15.1505 13.8628 14.9312 12.9072 15.6718 12.5183C17.2107 11.7157 20.4252 13.081 21.7407 13.0189C23.0563 12.9568 24.1816 11.2028 24.1816 11.2028C24.1816 11.2028 21.1161 10.8883 20.0529 10.6401C18.9896 10.4002 11.7954 8.83225 5.72641 13.9001Z" fill="#FF5117"/>
<path id="Vector_3" d="M22.6054 13.9538C20.7106 14.0407 15.6304 12.2577 15.1712 13.6518C14.683 15.1329 18.4642 17.098 23.0687 16.7753C27.8718 16.4402 30.8628 13.7842 30.1016 12.3528C29.3446 10.9214 26.2294 13.7842 22.6054 13.9538Z" fill="#8D1D0A"/>
<path id="Vector_4" d="M18.0588 5.61379C18.0588 5.61379 17.2604 5.57242 16.8384 5.4028C16.4164 5.23319 15.8207 5.2456 15.8703 4.51748C15.9531 3.29707 17.5169 2.04356 17.8933 1.82016C18.609 1.39818 19.8626 1.51402 20.3383 1.82016C20.9299 2.20076 20.632 3.5908 20.632 3.5908C20.632 3.5908 22.7378 6.75147 23.0315 8.68758C23.3004 10.4541 24.4008 15.6088 22.7378 15.9315C21.2195 16.2252 21.8524 12.2661 21.0126 10.33C20.5079 9.17161 19.7922 7.93051 19.1179 7.08656C18.736 6.61703 18.3824 6.12524 18.0588 5.61379Z" fill="#513630"/>
<path id="Vector_5" d="M40.5517 0.686549C40.7213 0.392822 40.3821 0.0949572 38.992 0.0535872C37.602 0.0122172 30.0189 -0.703484 25.7247 4.64566C22.6385 8.48894 23.1142 11.7654 23.1142 11.7654L25.9357 11.8937L40.5517 0.686549Z" fill="#2F7C31"/>
<path id="Vector_6" d="M31.2393 5.94891C33.7918 4.18655 40.5889 0.347412 40.5889 0.347412C40.5889 0.347412 40.5889 1.31547 40.167 2.15942C39.745 3.00337 38.3136 7.17347 32.5011 10.2059C27.0444 13.0521 23.4038 12.353 23.106 11.8483C22.8164 11.3436 27.0278 8.85723 31.2393 5.94891Z" fill="#709F19"/>
<path id="Vector_7" d="M12.4987 15.133C11.3693 13.5072 8.63472 13.9664 6.18148 17.2387C3.02081 21.4502 3.19043 27.0517 5.33753 27.3909C7.46809 27.726 5.58989 25.5789 8.87467 21.3261C11.39 18.0703 13.9301 17.1974 12.4987 15.133Z" fill="#FFD2B1"/>
</g>
</svg>
