<svg width="22" height="21" viewBox="0 0 22 21" fill="none" xmlns="http://www.w3.org/2000/svg">
<g id="Group" opacity="0.75">
<path id="Vector" d="M9.08171 13.8883L12.0355 14.8729C12.0355 14.8729 19.4199 13.396 20.4045 13.396C21.3891 13.396 21.3891 14.3806 20.4045 15.3652C19.4199 16.3498 15.9738 19.3035 13.0201 19.3035C10.0663 19.3035 8.09713 17.8266 6.12795 17.8266H1.20502" stroke="#FC8019" stroke-width="1.49534" stroke-linecap="round" stroke-linejoin="round"/>
<path id="Vector_2" d="M1.20496 11.9192C2.18954 10.9346 4.15872 9.45775 6.12789 9.45775C8.09707 9.45775 12.7739 11.4269 13.5123 12.4115C14.2507 13.3961 12.0354 14.873 12.0354 14.873M7.11248 6.50399V2.56564C7.11248 2.30451 7.21621 2.05408 7.40086 1.86943C7.5855 1.68479 7.83594 1.58105 8.09707 1.58105H19.9121C20.1732 1.58105 20.4237 1.68479 20.6083 1.86943C20.793 2.05408 20.8967 2.30451 20.8967 2.56564V10.4423" stroke="#FC8019" stroke-width="1.49534" stroke-linecap="round" stroke-linejoin="round"/>
<path id="Vector_3" d="M11.5429 1.58105H16.4658V6.0117H11.5429V1.58105Z" stroke="#FC8019" stroke-width="1.49534" stroke-linecap="round" stroke-linejoin="round"/>
</g>
</svg>
