<svg width="49" height="46" viewBox="0 0 49 46" fill="none" xmlns="http://www.w3.org/2000/svg">
<g id="Group 2">
<path id="Vector" d="M40.6349 8.95826C40.6349 8.95826 40.6481 9.14162 40.6521 9.47603L40.6537 9.60866C40.654 9.65558 40.6562 9.7022 40.6513 9.76166C40.6411 9.88567 40.6308 10.0097 40.6205 10.1337C40.6081 10.267 40.5966 10.4171 40.5793 10.567C40.5616 10.7142 40.5447 10.8725 40.5214 11.038C40.4122 11.838 40.2459 12.6292 40.024 13.4055C39.7684 14.3074 39.4089 15.3109 38.9138 16.3678C38.4204 17.4254 37.784 18.5301 37.0032 19.6351C36.9085 19.776 36.8045 19.9099 36.7021 20.0475L36.5469 20.254L36.4688 20.3579L36.4492 20.3839C36.5108 20.3272 36.3541 20.4759 36.3674 20.4644L36.3593 20.4753L36.3266 20.5187C36.1537 20.7514 35.9713 20.9791 35.7909 21.2136L35.7739 21.2355L35.7499 21.2625L35.7015 21.3168L35.6043 21.4255L35.4061 21.6413L35.0022 22.0751L34.9002 22.1836L34.8043 22.2818C34.7402 22.3478 34.6754 22.413 34.6098 22.4774L34.2142 22.8682C33.1439 23.905 31.9283 24.8706 30.608 25.7281C29.2693 26.5949 27.8505 27.3314 26.3711 27.9273C24.8908 28.5254 23.3572 28.9823 21.7909 29.292C20.2425 29.5962 18.6923 29.7486 17.1957 29.7562C15.6989 29.7644 14.2572 29.6313 12.9175 29.3924C12.247 29.2786 11.6031 29.1232 10.9874 28.9635C10.3734 28.7886 9.78653 28.6126 9.23545 28.4032L8.8266 28.2539C8.69221 28.2043 8.56164 28.145 8.43195 28.0919C8.17276 27.9841 7.92161 27.8757 7.67889 27.767C7.43704 27.6548 7.2045 27.5381 6.9799 27.4246L6.64882 27.2569C6.54039 27.202 6.43646 27.1389 6.33312 27.0817C5.92143 26.8468 5.54039 26.629 5.20197 26.398C4.86217 26.1711 4.55283 25.9664 4.28572 25.7569L3.90762 25.4634L3.58085 25.1974C3.38152 25.0268 3.21716 24.8741 3.08453 24.751C2.81957 24.5048 2.68567 24.3641 2.68567 24.3641C1.43942 23.0546 1.49074 20.9828 2.80027 19.7365C3.32523 19.2353 4.00248 18.9237 4.72464 18.8512L5.11724 18.8115C5.11724 18.8115 5.2818 18.7948 5.57644 18.7809C5.72366 18.7741 5.90438 18.7648 6.11067 18.7626L6.44714 18.7429L6.82112 18.7286C7.0806 18.7262 7.37171 18.7008 7.6781 18.6909C7.98352 18.6846 8.31626 18.6535 8.66057 18.6397C9.00546 18.6244 9.37239 18.5862 9.74764 18.5687C10.128 18.5276 10.517 18.5102 10.9219 18.4628L11.2266 18.4325L11.38 18.42L11.5353 18.4008L11.8483 18.3625L12.1638 18.3304C12.3763 18.2994 12.5906 18.2692 12.8063 18.2448L12.9685 18.2248L13.1319 18.1978L13.4602 18.1499C14.3394 18.0167 15.2451 17.8553 16.1634 17.6582C18.0002 17.2666 19.8874 16.7335 21.7283 16.0507C22.6476 15.7087 23.5544 15.3341 24.4471 14.9277C25.3376 14.5246 26.2046 14.0884 27.0493 13.6399L27.3618 13.4672C27.4138 13.4383 27.4661 13.41 27.5192 13.3828L27.5986 13.3415L27.6664 13.3049L27.937 13.1603L28.0735 13.0891L28.143 13.0549L28.1778 13.0379L28.1953 13.0293L28.2185 13.0141C28.4666 12.8529 28.708 12.6892 28.9539 12.5353L28.9997 12.5063L29.0112 12.499C29.031 12.4815 28.8807 12.6241 28.9487 12.5611L28.9671 12.5498L29.0407 12.5045L29.1879 12.4144L29.4805 12.2346C30.2542 11.7523 30.9967 11.2674 31.6842 10.787C32.3282 10.3381 32.9636 9.87694 33.5899 9.40374C34.1686 8.96972 34.6788 8.56635 35.1107 8.22665C35.2167 8.14074 35.3222 8.06101 35.4196 7.98422C35.5156 7.90938 35.6041 7.84542 35.6882 7.78146L35.9224 7.60504C35.9589 7.58104 35.9968 7.54637 36.0322 7.5164L36.1329 7.4301C36.3869 7.21255 36.5334 7.10147 36.5334 7.10147C37.6608 6.24703 39.2673 6.46831 40.1217 7.59564C40.4221 7.99001 40.6005 8.46369 40.6349 8.95826Z" fill="#FFAE2C"/>
<path id="Vector_2" d="M3.83053 21.7493C3.42951 22.6649 3.07444 22.7861 2.13253 22.3736C1.19052 21.9611 1.03879 21.618 1.43971 20.7024C1.84063 19.7867 4.23155 20.8336 3.83053 21.7493Z" fill="#B28E7F"/>
<path id="Vector_3" d="M42.7057 10.1345C42.7057 10.1345 42.7496 10.3372 42.8073 10.7103L42.8301 10.8584C42.8379 10.9108 42.8478 10.9625 42.8518 11.0297L42.8765 11.4503C42.8839 11.6012 42.8949 11.7707 42.8994 11.941C42.903 12.1083 42.9092 12.2879 42.9095 12.4765C42.9147 13.3878 42.8547 14.2983 42.7301 15.2011C42.5879 16.2496 42.3457 17.4279 41.9605 18.6876C41.5773 19.9477 41.0418 21.2834 40.345 22.6422C40.2616 22.8147 40.1667 22.9809 40.0741 23.151L39.9336 23.4064L39.8628 23.5349L39.845 23.5671C39.9048 23.4939 39.7533 23.685 39.7663 23.67L39.759 23.6835L39.7295 23.7371C39.5733 24.0247 39.4056 24.3081 39.2413 24.5988L39.2258 24.626L39.2033 24.6599L39.1579 24.7282L39.0666 24.8652L38.8794 25.1378L38.4971 25.6866L38.4003 25.8241L38.3087 25.9491C38.2479 26.0328 38.1856 26.1157 38.1226 26.1984L37.7426 26.6979C36.7115 28.0267 35.5067 29.2989 34.1677 30.467C32.8096 31.6484 31.3413 32.6969 29.783 33.5979C28.2239 34.5015 26.5829 35.2559 24.882 35.851C23.2001 36.4371 21.4921 36.8537 19.8211 37.1002C18.1498 37.3474 16.5176 37.4277 14.9826 37.3738C14.2153 37.3531 13.4711 37.282 12.7577 37.2013C12.0438 37.1035 11.36 37.0001 10.711 36.8537L10.2304 36.752C10.0725 36.718 9.9171 36.6724 9.76371 36.6336C9.46491 36.5566 9.16717 36.4755 8.87058 36.3903C8.5825 36.3034 8.30412 36.21 8.03504 36.1189L7.63843 35.9841C7.50855 35.9399 7.38239 35.886 7.25779 35.8386C7.01759 35.7448 6.77854 35.6482 6.54068 35.5487C6.31059 35.4585 6.09343 35.3521 5.88518 35.2544C5.46938 35.055 5.09118 34.8753 4.75942 34.6836C4.46415 34.5183 4.17172 34.348 3.88225 34.1727C3.67163 34.0354 3.46326 33.8947 3.25722 33.7506C2.92202 33.5175 2.75002 33.3816 2.75002 33.3816C1.14928 32.1165 0.877268 29.7932 2.14242 28.1925C2.64934 27.549 3.35654 27.0932 4.15191 26.8973L4.58428 26.7905C4.58428 26.7905 4.76549 26.7456 5.09255 26.6833C5.25594 26.6524 5.45635 26.6135 5.68712 26.5757C5.91996 26.5286 6.18433 26.478 6.47505 26.427C6.7646 26.383 7.08588 26.3084 7.42666 26.2486C7.76695 26.1931 8.13378 26.1054 8.51638 26.0352C8.89937 25.9633 9.30333 25.8623 9.71982 25.7831C9.93162 25.7305 10.1442 25.6812 10.3575 25.6352C10.5733 25.5898 10.7928 25.5321 11.0151 25.478L11.3508 25.3958L11.5202 25.3574L11.6906 25.3112L12.0342 25.2187L12.3817 25.1328L12.7321 25.0307C12.9094 24.9826 13.0867 24.9346 13.264 24.8867L13.4423 24.8306C13.5614 24.7936 13.6814 24.7602 13.8016 24.7248C14.7627 24.4362 15.7492 24.1118 16.7439 23.7456C18.7342 23.016 20.7581 22.1203 22.7066 21.0646C23.6794 20.5363 24.6332 19.9736 25.566 19.3775C26.4969 18.7855 27.3965 18.1603 28.269 17.5248L28.5908 17.2821C28.6443 17.2413 28.6984 17.2015 28.7533 17.1627L28.8353 17.104L28.9053 17.0523L29.1847 16.8477L29.3259 16.7464L29.3982 16.6971L29.4344 16.6725L29.4526 16.6601L29.4761 16.6394C29.7278 16.4199 29.9715 16.1985 30.2217 15.9874L30.2683 15.9477L30.2799 15.9378C30.2994 15.915 30.1541 16.0982 30.2199 16.0171L30.2387 16.0015L30.3138 15.9393L30.4639 15.8152L30.7624 15.5678C31.5501 14.9058 32.3028 14.2461 32.9946 13.6C33.6428 12.996 34.2794 12.3797 34.9042 11.7515C35.4817 11.1744 35.9877 10.6428 36.4163 10.1944C36.5211 10.0816 36.6263 9.9757 36.723 9.87442C36.8184 9.77549 36.9071 9.69007 36.9909 9.60515L37.2245 9.37075C37.2614 9.33813 37.2983 9.29337 37.333 9.25419L37.4318 9.14174C37.6811 8.85826 37.8272 8.71084 37.8272 8.71084C38.951 7.57685 40.7813 7.56872 41.9153 8.69253C42.3137 9.08588 42.5884 9.58707 42.7057 10.1345Z" fill="#FFB93E"/>
<path id="Vector_4" d="M3.61376 30.2783C3.31129 31.3652 0.473312 30.5754 0.775789 29.4885C1.07827 28.4016 1.45577 28.2098 2.574 28.521C3.69222 28.8321 3.91624 29.1913 3.61376 30.2783Z" fill="#A07562"/>
<path id="Vector_5" d="M41.084 1.14914C40.9707 1.11804 40.8522 1.11044 40.7358 1.12681C40.6149 1.02322 40.4795 0.938001 40.3338 0.873895C39.7484 0.617553 39.1121 1.18352 38.7883 1.53831C37.8029 2.61764 40.0204 4.03345 38.4447 6.64055C38.2226 7.00787 38.4119 7.95399 38.7509 8.10239C39.1332 8.26979 39.5837 8.14784 39.9185 7.82323C39.9089 7.84654 39.8998 7.86956 39.8899 7.89307C39.7001 8.33885 40.0622 9.36588 40.4644 9.47784C41.0619 9.64406 41.7124 9.23217 41.9765 8.52731C42.7192 6.54505 43.5126 1.82501 41.084 1.14914Z" fill="#8E6049"/>
<path id="Vector_6" d="M46.2241 8.69378C46.2241 8.69378 46.325 8.86804 46.4916 9.19667L46.5576 9.32704C46.5807 9.37347 46.6053 9.41745 46.6303 9.482L46.7852 9.88048C46.8395 10.0237 46.9029 10.1842 46.9606 10.346C47.0162 10.5047 47.0779 10.674 47.1376 10.854C47.4285 11.7228 47.6602 12.6102 47.8312 13.5103C48.0322 14.5555 48.1838 15.7562 48.2311 17.0803C48.2805 18.4042 48.2147 19.8494 48.0094 21.3699C47.9879 21.5611 47.954 21.7505 47.9233 21.9426L47.876 22.2316L47.852 22.377L47.8459 22.4134C47.8765 22.3188 47.8009 22.5631 47.8078 22.5431L47.8053 22.5581L47.7952 22.6181C47.7427 22.9392 47.679 23.2608 47.6206 23.5877L47.615 23.6184L47.6052 23.6584L47.5854 23.7386L47.5454 23.8995C47.5173 24.007 47.4892 24.1144 47.4611 24.2219L47.2865 24.8722L47.2419 25.0353L47.1977 25.1844C47.1684 25.2842 47.138 25.3838 47.1065 25.483L46.9177 26.0838C46.392 27.6863 45.6972 29.2985 44.8416 30.8587C43.9733 32.4365 42.9595 33.9296 41.8134 35.3188C40.6645 36.7171 39.3812 38.0035 38.0178 39.1442C36.6546 40.2855 35.211 41.2811 33.7425 42.1065C32.2743 42.933 30.7856 43.5934 29.3405 44.0975C28.6204 44.3553 27.9039 44.5587 27.213 44.7432C26.5152 44.9117 25.8439 45.0652 25.1893 45.167L24.7069 45.2485C24.5482 45.275 24.3878 45.2898 24.2316 45.3103C23.9185 45.3493 23.6131 45.3837 23.3158 45.4133C23.0174 45.4388 22.7256 45.455 22.4434 45.4703L22.0271 45.4924C21.8907 45.4997 21.7543 45.4966 21.6216 45.4989C21.0895 45.5012 20.5966 45.5038 20.1379 45.4702C19.6803 45.4413 19.2646 45.4177 18.8875 45.3657L18.3553 45.2958L17.8885 45.2243C17.5989 45.1724 17.3537 45.1191 17.1558 45.076C16.7601 44.9897 16.5511 44.9317 16.5511 44.9317C14.6057 44.3921 13.4661 42.3775 14.0057 40.4321C14.2398 39.5834 14.7735 38.8483 15.5078 38.3627L15.8687 38.1243C15.8687 38.1243 16.0219 38.023 16.3053 37.8555C16.4469 37.7718 16.6204 37.6684 16.8231 37.5576L17.145 37.3613L17.5071 37.1496C17.7626 37.0099 18.0368 36.8302 18.3348 36.657C18.634 36.488 18.9465 36.2791 19.2803 36.0803C19.6138 35.8798 19.9565 35.6442 20.3191 35.4233C20.6737 35.1767 21.0498 34.9478 21.425 34.6794L21.7105 34.4829L21.8555 34.3863L21.9988 34.2821L22.2878 34.0724L22.5826 33.8668L22.8744 33.6451L23.1715 33.4272L23.3211 33.3176L23.4679 33.2004L23.7662 32.9706C24.562 32.3504 25.3665 31.6833 26.1602 30.9708C26.9537 30.2584 27.7396 29.5049 28.4981 28.7099C29.2569 27.9153 29.9875 27.0795 30.6848 26.2184C32.0755 24.4924 33.3224 22.6563 34.3927 20.8186L34.5886 20.473C34.621 20.4156 34.654 20.3582 34.6885 20.3017L34.7395 20.2166L34.7815 20.1429L34.9502 19.851L35.0362 19.7058L35.0811 19.6338L35.1036 19.5978L35.1149 19.5797L35.1282 19.5516C35.272 19.2522 35.4086 18.9542 35.5539 18.6631L35.5808 18.6084L35.5876 18.5948C35.5977 18.5653 35.525 18.8 35.5582 18.6957L35.5689 18.6743L35.6117 18.589L35.6974 18.4189L35.8674 18.0804C36.3122 17.1791 36.7228 16.2975 37.0821 15.455C37.418 14.6703 37.7382 13.8789 38.0427 13.0814C38.3246 12.3507 38.5596 11.69 38.759 11.1341C38.8066 10.9952 38.8569 10.8625 38.9019 10.7373C38.9465 10.6151 38.9899 10.5099 39.0296 10.4057L39.1416 10.118C39.161 10.0776 39.1758 10.0218 39.1907 9.97314L39.233 9.83326C39.3398 9.48063 39.4088 9.29149 39.4088 9.29149C40.1245 7.33224 42.2929 6.32421 44.2521 7.03986C45.1154 7.35497 45.7963 7.95649 46.2241 8.69378Z" fill="#FFCE6C"/>
<path id="Vector_7" d="M45.554 18.2072C45.554 18.2072 45.6148 18.4896 45.6763 18.9781C45.6843 19.0392 45.693 19.1036 45.6999 19.1709L45.7113 19.2742L45.7167 19.3896C45.7248 19.5473 45.7258 19.7178 45.7304 19.902C45.7326 20.0849 45.7333 20.2843 45.7282 20.4881L45.6866 21.1188C45.6585 21.5612 45.5821 22.031 45.4962 22.5309C45.4772 22.6568 45.4473 22.7808 45.4183 22.907L45.3271 23.2897C45.2632 23.5473 45.2012 23.8128 45.1129 24.0732C45.0288 24.3402 44.9415 24.6062 44.8508 24.8711C44.7504 25.1359 44.641 25.4008 44.5315 25.6686C44.4738 25.8011 44.4231 25.9379 44.3583 26.0679L44.1675 26.4611L43.972 26.8541C43.9084 26.9863 43.8366 27.1137 43.763 27.2403C43.6184 27.4944 43.4715 27.7471 43.3221 27.9983C43.1652 28.2416 43.005 28.4827 42.8416 28.7217C42.6846 28.9626 42.5102 29.1881 42.3384 29.4106C42.1643 29.6315 41.9995 29.8547 41.8189 30.0595C41.459 30.4698 41.1105 30.8638 40.7464 31.2057L40.481 31.4611C40.3931 31.544 40.3089 31.6277 40.2187 31.7032C40.0389 31.8546 39.8703 32.0043 39.7005 32.1402C39.3703 32.4205 39.0433 32.6501 38.754 32.8511C38.6083 32.9506 38.4742 33.0451 38.3457 33.1272C38.2261 33.2005 38.1054 33.2721 37.9837 33.3419C37.8138 33.441 37.6416 33.5359 37.4672 33.6266C37.3461 33.6893 37.2801 33.7205 37.2801 33.7205C37.1289 33.7921 36.959 33.8141 36.7946 33.7834C36.6302 33.7526 36.4797 33.6708 36.3646 33.5495C36.2494 33.4281 36.1755 33.2735 36.1535 33.1077C36.1314 32.942 36.1622 32.7734 36.2416 32.6262L36.2553 32.6012L36.3517 32.4249C36.4159 32.3117 36.5104 32.1469 36.6363 31.9458C36.698 31.844 36.7689 31.7344 36.8458 31.6156C36.9177 31.4919 36.9991 31.3625 37.0845 31.2235C37.256 30.9463 37.4591 30.6459 37.6629 30.307C37.765 30.1376 37.8795 29.9695 37.9929 29.7919C38.1036 29.6122 38.2151 29.4253 38.334 29.2375C38.5773 28.8659 38.8094 28.4603 39.065 28.0553C39.1311 27.9554 39.1903 27.85 39.2508 27.7446L39.4372 27.4292L39.629 27.113C39.6941 27.0076 39.7512 26.8969 39.814 26.7892C39.9355 26.5713 40.0648 26.3562 40.1905 26.1381C40.3092 25.9159 40.4304 25.695 40.554 25.4755C40.6821 25.2578 40.7894 25.0305 40.9087 24.8098C41.0254 24.588 41.1493 24.3704 41.2542 24.1466C41.3643 23.9269 41.4762 23.7083 41.5901 23.4907C41.691 23.2731 41.795 23.0571 41.9021 22.8425C42.012 22.6316 42.1029 22.4184 42.1998 22.2113L42.3449 21.9041C42.3947 21.8052 42.4412 21.7046 42.4843 21.6026C42.5691 21.4072 42.6562 21.2127 42.7457 21.0193C42.84 20.8324 42.9102 20.6462 42.9864 20.4685L43.2133 19.9575C43.2856 19.7972 43.3415 19.6472 43.4055 19.5039C43.4694 19.3614 43.5259 19.2261 43.5853 19.1011L43.6282 19.0088L43.6651 18.9116C43.6886 18.8482 43.7133 18.7881 43.7364 18.731C43.9187 18.2735 44.0485 18.0154 44.0485 18.0154C44.1444 17.8248 44.312 17.68 44.5146 17.613C44.7172 17.546 44.9381 17.5622 45.1287 17.658C45.3538 17.7708 45.5035 17.9792 45.554 18.2072Z" fill="#FFDF95"/>
<path id="Vector_8" d="M16.2295 41.7262C16.3421 42.8489 16.0599 43.1646 14.905 43.2804C13.7502 43.3961 13.411 43.1427 13.2984 42.0201C13.1859 40.8975 13.4681 40.5818 14.6229 40.466C15.7778 40.3502 16.117 40.6036 16.2295 41.7262Z" fill="#8E6049"/>
<path id="Vector_9" d="M43.0209 8.97196C43.6379 8.91015 44.0947 8.29031 44.085 7.53755C44.0578 5.42089 45.6858 2.1341 43.4414 0.986096C40.7845 -0.372993 38.6956 1.49408 38.5735 2.02224C38.2018 3.62934 41.0369 3.88862 41.9311 8.38434C42.0257 8.85941 42.6054 9.01359 43.0209 8.97196Z" fill="#966C5A"/>
<path id="Vector_10" d="M42.7055 4.17937C41.9915 5.33726 42.7063 9.00342 43.0209 8.97188C43.6379 8.90998 45.2814 0.00189209 42.7055 4.17937Z" fill="#1AC84B"/>
</g>
</svg>
