<svg width="22" height="23" viewBox="0 0 22 23" fill="none" xmlns="http://www.w3.org/2000/svg">
<path id="Vector" opacity="0.75" d="M20.2814 2.06083C20.0969 1.87421 19.8772 1.72615 19.6349 1.6253C19.3926 1.52445 19.1327 1.47281 18.8703 1.47339H13.3995C13.0406 1.47406 12.6965 1.61622 12.4418 1.86903L1.50513 12.8034C1.13195 13.1774 0.922363 13.6841 0.922363 14.2124C0.922363 14.7407 1.13195 15.2474 1.50513 15.6214L6.712 20.8282C7.08604 21.2016 7.59293 21.4113 8.12141 21.4113C8.64989 21.4113 9.15678 21.2016 9.53082 20.8282L20.463 9.89828C20.7163 9.64398 20.859 9.29995 20.86 8.94102V3.46713C20.8616 3.20608 20.8113 2.9473 20.712 2.70587C20.6126 2.46444 20.4663 2.24518 20.2814 2.06083V2.06083ZM16.5877 7.16979C16.306 7.16979 16.0307 7.08627 15.7965 6.92979C15.5623 6.77331 15.3798 6.55089 15.272 6.29067C15.1642 6.03045 15.136 5.74411 15.1909 5.46787C15.2459 5.19162 15.3815 4.93787 15.5807 4.7387C15.7799 4.53954 16.0336 4.40391 16.3099 4.34896C16.5861 4.29401 16.8724 4.32221 17.1327 4.43C17.3929 4.53778 17.6153 4.72031 17.7718 4.95451C17.9283 5.1887 18.0118 5.46403 18.0118 5.74569C18.0118 6.12339 17.8617 6.48561 17.5947 6.75268C17.3276 7.01975 16.9654 7.16979 16.5877 7.16979Z" stroke="#FC8019" stroke-width="1.49534"/>
</svg>
